<svg width="1600" height="161" viewBox="0 0 1600 161" version="1.1" xmlns="http://www.w3.org/2000/svg" xmlns:xlink="http://www.w3.org/1999/xlink">
<title>BottomImage</title>
<desc>Created using Figma</desc>
<g id="Canvas" transform="translate(924 -348)">
<g id="BottomImage">
<g id="Shape 2">
<use xlink:href="#path0_fill" transform="translate(-934.144 369.428)" fill="#DAE9FE" fill-opacity="0.631373"/>
</g>
<g id="Shape 1">
<use xlink:href="#path1_fill" transform="translate(-1006.95 348.285)" fill="#EDF4FB" fill-opacity="0.631373"/>
</g>
</g>
</g>
<defs>
<path id="path0_fill" fill-rule="evenodd" d="M 6.825 131.671C 6.825 131.671 87.589 -23.2709 233.191 99.7711C 378.793 222.816 448.181 127.114 489.131 91.7961C 530.082 56.4781 621.083 -38.0819 737.11 155.596C 853.136 349.276 943 196.606 966.888 160.153C 990.776 123.696 1081.78 -59.7289 1200.07 171.546C 1200.07 171.546 1300.19 202.306 1343.41 128.253C 1386.64 54.1991 1558.4 -118.972 1688.07 128.253C 1817.74 375.476 1856.43 177.246 1856.43 177.246L 1864.39 300.286L 724.597 300.286L 0 300.286L 6.825 131.671Z"/>
<path id="path1_fill" fill-rule="evenodd" d="M 2.27499 2.34375e-05C 2.27499 2.34375e-05 76.213 161.779 227.503 88.864C 378.792 15.95 416.33 30.761 538.045 93.422C 659.759 156.083 716.634 108.233 735.972 88.864C 755.31 69.497 853.136 -47.85 1020.35 72.914C 1187.57 193.681 1281.98 138.993 1330.89 96.84C 1379.81 54.686 1466.26 -51.267 1582.28 63.8C 1698.31 178.868 1764.29 110.511 1785.9 83.168C 1807.51 55.825 1840.5 -14.811 1886 36.458L 1886 184.564L 0 184.564L 2.27499 2.34375e-05Z"/>
</defs>
</svg>
